%TF.GenerationSoftware,KiCad,Pcbnew,9.0.4*%
%TF.CreationDate,2025-09-28T21:19:40-04:00*%
%TF.ProjectId,esmonx,65736d6f-6e78-42e6-9b69-6361645f7063,A*%
%TF.SameCoordinates,Original*%
%TF.FileFunction,Copper,L1,Top*%
%TF.FilePolarity,Positive*%
%FSLAX46Y46*%
G04 Gerber Fmt 4.6, Leading zero omitted, Abs format (unit mm)*
G04 Created by KiCad (PCBNEW 9.0.4) date 2025-09-28 21:19:40*
%MOMM*%
%LPD*%
G01*
G04 APERTURE LIST*
G04 Aperture macros list*
%AMRoundRect*
0 Rectangle with rounded corners*
0 $1 Rounding radius*
0 $2 $3 $4 $5 $6 $7 $8 $9 X,Y pos of 4 corners*
0 Add a 4 corners polygon primitive as box body*
4,1,4,$2,$3,$4,$5,$6,$7,$8,$9,$2,$3,0*
0 Add four circle primitives for the rounded corners*
1,1,$1+$1,$2,$3*
1,1,$1+$1,$4,$5*
1,1,$1+$1,$6,$7*
1,1,$1+$1,$8,$9*
0 Add four rect primitives between the rounded corners*
20,1,$1+$1,$2,$3,$4,$5,0*
20,1,$1+$1,$4,$5,$6,$7,0*
20,1,$1+$1,$6,$7,$8,$9,0*
20,1,$1+$1,$8,$9,$2,$3,0*%
G04 Aperture macros list end*
%TA.AperFunction,SMDPad,CuDef*%
%ADD10RoundRect,0.200000X0.200000X0.275000X-0.200000X0.275000X-0.200000X-0.275000X0.200000X-0.275000X0*%
%TD*%
%TA.AperFunction,SMDPad,CuDef*%
%ADD11RoundRect,0.218750X0.256250X-0.218750X0.256250X0.218750X-0.256250X0.218750X-0.256250X-0.218750X0*%
%TD*%
%TA.AperFunction,SMDPad,CuDef*%
%ADD12RoundRect,0.150000X0.150000X-0.512500X0.150000X0.512500X-0.150000X0.512500X-0.150000X-0.512500X0*%
%TD*%
%TA.AperFunction,SMDPad,CuDef*%
%ADD13RoundRect,0.200000X-0.275000X0.200000X-0.275000X-0.200000X0.275000X-0.200000X0.275000X0.200000X0*%
%TD*%
%TA.AperFunction,SMDPad,CuDef*%
%ADD14RoundRect,0.200000X0.275000X-0.200000X0.275000X0.200000X-0.275000X0.200000X-0.275000X-0.200000X0*%
%TD*%
%TA.AperFunction,SMDPad,CuDef*%
%ADD15C,1.000000*%
%TD*%
%TA.AperFunction,SMDPad,CuDef*%
%ADD16RoundRect,0.218750X-0.218750X-0.256250X0.218750X-0.256250X0.218750X0.256250X-0.218750X0.256250X0*%
%TD*%
%TA.AperFunction,SMDPad,CuDef*%
%ADD17RoundRect,0.225000X0.225000X0.250000X-0.225000X0.250000X-0.225000X-0.250000X0.225000X-0.250000X0*%
%TD*%
%TA.AperFunction,SMDPad,CuDef*%
%ADD18RoundRect,0.225000X-0.225000X-0.250000X0.225000X-0.250000X0.225000X0.250000X-0.225000X0.250000X0*%
%TD*%
%TA.AperFunction,SMDPad,CuDef*%
%ADD19R,3.700000X1.200000*%
%TD*%
%TA.AperFunction,ComponentPad*%
%ADD20R,1.700000X1.700000*%
%TD*%
%TA.AperFunction,ComponentPad*%
%ADD21C,1.700000*%
%TD*%
%TA.AperFunction,SMDPad,CuDef*%
%ADD22RoundRect,0.150000X-0.512500X-0.150000X0.512500X-0.150000X0.512500X0.150000X-0.512500X0.150000X0*%
%TD*%
%TA.AperFunction,SMDPad,CuDef*%
%ADD23RoundRect,0.150000X0.512500X0.150000X-0.512500X0.150000X-0.512500X-0.150000X0.512500X-0.150000X0*%
%TD*%
%TA.AperFunction,SMDPad,CuDef*%
%ADD24RoundRect,0.225000X0.250000X-0.225000X0.250000X0.225000X-0.250000X0.225000X-0.250000X-0.225000X0*%
%TD*%
%TA.AperFunction,Conductor*%
%ADD25C,0.200000*%
%TD*%
%TA.AperFunction,Conductor*%
%ADD26C,0.300000*%
%TD*%
%TA.AperFunction,Conductor*%
%ADD27C,0.400000*%
%TD*%
%TA.AperFunction,Conductor*%
%ADD28C,0.600000*%
%TD*%
G04 APERTURE END LIST*
D10*
%TO.P,R6,1,1*%
%TO.N,Net-(U1-INA-)*%
X163425000Y-78000000D03*
%TO.P,R6,2,2*%
%TO.N,Net-(D1-A)*%
X161775000Y-78000000D03*
%TD*%
D11*
%TO.P,D1,1,K*%
%TO.N,GND*%
X160200000Y-79487500D03*
%TO.P,D1,2,A*%
%TO.N,Net-(D1-A)*%
X160200000Y-77912500D03*
%TD*%
D12*
%TO.P,U2,5,VIN*%
%TO.N,VBAT*%
X160050000Y-67050000D03*
%TO.P,U2,4,EN/DT*%
X161950000Y-67050000D03*
%TO.P,U2,3,FB*%
%TO.N,Net-(U2-FB)*%
X161950000Y-69350000D03*
%TO.P,U2,2,GND*%
%TO.N,GND*%
X161000000Y-69350000D03*
%TO.P,U2,1,SW*%
%TO.N,VDDA*%
X160050000Y-69350000D03*
%TD*%
D13*
%TO.P,R2,1,1*%
%TO.N,Net-(R2-Pad1)*%
X153700000Y-72725000D03*
%TO.P,R2,2,2*%
%TO.N,Net-(Q1-G)*%
X153700000Y-74375000D03*
%TD*%
D14*
%TO.P,R4,1,1*%
%TO.N,Net-(U2-FB)*%
X163600000Y-71425000D03*
%TO.P,R4,2,2*%
%TO.N,GND*%
X163600000Y-69775000D03*
%TD*%
D15*
%TO.P,TP1,1,1*%
%TO.N,Net-(R2-Pad1)*%
X145650000Y-72800000D03*
%TD*%
D16*
%TO.P,L2,1,1*%
%TO.N,3V0*%
X164812500Y-73200000D03*
%TO.P,L2,2,2*%
%TO.N,VBAT*%
X166387500Y-73200000D03*
%TD*%
D17*
%TO.P,C3,1,1*%
%TO.N,GND*%
X157575000Y-71400000D03*
%TO.P,C3,2,2*%
%TO.N,VDDA*%
X156025000Y-71400000D03*
%TD*%
D18*
%TO.P,C1,1,1*%
%TO.N,GND*%
X161425000Y-73000000D03*
%TO.P,C1,2,2*%
%TO.N,3V0*%
X162975000Y-73000000D03*
%TD*%
D19*
%TO.P,L1,1,1*%
%TO.N,VBAT*%
X156400000Y-66600001D03*
%TO.P,L1,2,2*%
%TO.N,VDDA*%
X156400000Y-69400000D03*
%TD*%
D20*
%TO.P,J2,1,1*%
%TO.N,Net-(U1-INA-)*%
X166200000Y-75925000D03*
D21*
%TO.P,J2,2,2*%
%TO.N,GND*%
X166200000Y-78465000D03*
%TD*%
D22*
%TO.P,U1,1,OUTA*%
%TO.N,Net-(U1-INA-)*%
X160450000Y-74550000D03*
%TO.P,U1,2,V-*%
%TO.N,GND*%
X160450000Y-75500000D03*
%TO.P,U1,3,INA+*%
%TO.N,Net-(Q1-D)*%
X160450000Y-76450000D03*
%TO.P,U1,4,INA-*%
%TO.N,Net-(U1-INA-)*%
X162750000Y-76450000D03*
%TO.P,U1,5,V+*%
%TO.N,3V0*%
X162750000Y-74550000D03*
%TD*%
D20*
%TO.P,J1,1,1*%
%TO.N,VBAT*%
X166200000Y-66925000D03*
D21*
%TO.P,J1,2,2*%
%TO.N,GND*%
X166200000Y-69465000D03*
%TD*%
D13*
%TO.P,R1,1,1*%
%TO.N,Net-(Q1-D)*%
X158000000Y-76575000D03*
%TO.P,R1,2,2*%
%TO.N,GND*%
X158000000Y-78225000D03*
%TD*%
D10*
%TO.P,R5,1,1*%
%TO.N,Net-(U2-FB)*%
X161825000Y-71100000D03*
%TO.P,R5,2,2*%
%TO.N,VDDA*%
X160175000Y-71100000D03*
%TD*%
D13*
%TO.P,R3,1,1*%
%TO.N,VDDA*%
X156000000Y-73175000D03*
%TO.P,R3,2,2*%
%TO.N,Net-(Q1-D)*%
X156000000Y-74825000D03*
%TD*%
D23*
%TO.P,Q1,1,S*%
%TO.N,GND*%
X155937500Y-78750000D03*
%TO.P,Q1,2,D*%
%TO.N,Net-(Q1-D)*%
X155937500Y-76850000D03*
%TO.P,Q1,3,G*%
%TO.N,Net-(Q1-G)*%
X153662500Y-77800000D03*
%TD*%
D24*
%TO.P,C2,1,1*%
%TO.N,GND*%
X163600000Y-68375000D03*
%TO.P,C2,2,2*%
%TO.N,VBAT*%
X163600000Y-66825000D03*
%TD*%
D25*
%TO.N,Net-(U1-INA-)*%
X162750000Y-76450000D02*
X163150000Y-76450000D01*
X163675000Y-75925000D02*
X166200000Y-75925000D01*
X163150000Y-76450000D02*
X163675000Y-75925000D01*
%TO.N,Net-(D1-A)*%
X160200000Y-78012500D02*
X161762500Y-78012500D01*
X161762500Y-78012500D02*
X161775000Y-78000000D01*
%TO.N,Net-(U1-INA-)*%
X163425000Y-78000000D02*
X163425000Y-76825000D01*
X163425000Y-76825000D02*
X163050000Y-76450000D01*
X163050000Y-76450000D02*
X162750000Y-76450000D01*
X160450000Y-74550000D02*
X161350000Y-74550000D01*
X162000000Y-76100000D02*
X162350000Y-76450000D01*
X161350000Y-74550000D02*
X162000000Y-75200000D01*
X162000000Y-75200000D02*
X162000000Y-76100000D01*
X162350000Y-76450000D02*
X162750000Y-76450000D01*
%TO.N,Net-(Q1-D)*%
X160450000Y-76450000D02*
X158125000Y-76450000D01*
X158125000Y-76450000D02*
X158000000Y-76575000D01*
X155937500Y-76850000D02*
X157725000Y-76850000D01*
X157725000Y-76850000D02*
X158000000Y-76575000D01*
D26*
%TO.N,3V0*%
X164812500Y-73200000D02*
X162750000Y-73200000D01*
X162750000Y-73200000D02*
X162750000Y-74600000D01*
D25*
%TO.N,Net-(Q1-G)*%
X153700000Y-74375000D02*
X153700000Y-77762500D01*
X153700000Y-77762500D02*
X153662500Y-77800000D01*
%TO.N,Net-(R2-Pad1)*%
X145650000Y-72800000D02*
X153625000Y-72800000D01*
D27*
X153625000Y-72800000D02*
X153700000Y-72725000D01*
%TO.N,VDDA*%
X160175000Y-71100000D02*
X160050000Y-70975000D01*
X160050000Y-70975000D02*
X160050000Y-69350000D01*
D28*
%TO.N,VBAT*%
X166200000Y-66925000D02*
X166425000Y-66925000D01*
X167551000Y-68051000D02*
X167551000Y-72036500D01*
X166425000Y-66925000D02*
X167551000Y-68051000D01*
X167551000Y-72036500D02*
X166387500Y-73200000D01*
X162700000Y-66825000D02*
X163600000Y-66825000D01*
X161950000Y-67050000D02*
X162475000Y-67050000D01*
X162475000Y-67050000D02*
X162700000Y-66825000D01*
%TO.N,VDDA*%
X156025000Y-71400000D02*
X156025000Y-73150000D01*
X156025000Y-73150000D02*
X156000000Y-73175000D01*
X156450000Y-69350000D02*
X156025000Y-69775000D01*
X156025000Y-69775000D02*
X156025000Y-71400000D01*
D25*
%TO.N,Net-(U2-FB)*%
X163600000Y-71425000D02*
X162150000Y-71425000D01*
X162150000Y-71425000D02*
X161825000Y-71100000D01*
X161950000Y-69350000D02*
X161950000Y-70975000D01*
X161950000Y-70975000D02*
X161825000Y-71100000D01*
D28*
%TO.N,VBAT*%
X163600000Y-66825000D02*
X166100000Y-66825000D01*
X166100000Y-66825000D02*
X166200000Y-66925000D01*
X160050000Y-67050000D02*
X161950000Y-67050000D01*
X160050000Y-67050000D02*
X159200000Y-67050000D01*
X159200000Y-67050000D02*
X158750001Y-66600001D01*
X158750001Y-66600001D02*
X156400000Y-66600001D01*
%TO.N,VDDA*%
X160050000Y-69350000D02*
X156450000Y-69350000D01*
D25*
X156450000Y-69350000D02*
X156400000Y-69400000D01*
%TO.N,Net-(Q1-D)*%
X155937500Y-76850000D02*
X155937500Y-74912500D01*
X157875000Y-76850000D02*
X158000000Y-76725000D01*
X156000000Y-74825000D02*
X156000000Y-76787500D01*
X156000000Y-76787500D02*
X155937500Y-76850000D01*
%TD*%
%TA.AperFunction,Conductor*%
%TO.N,GND*%
G36*
X168258691Y-65219407D02*
G01*
X168294655Y-65268907D01*
X168299500Y-65299500D01*
X168299500Y-80300500D01*
X168280593Y-80358691D01*
X168231093Y-80394655D01*
X168200500Y-80399500D01*
X152499000Y-80399500D01*
X152440809Y-80380593D01*
X152404845Y-80331093D01*
X152400000Y-80300500D01*
X152400000Y-79737501D01*
X159525001Y-79737501D01*
X159525001Y-79739209D01*
X159540531Y-79837262D01*
X159600751Y-79955452D01*
X159694547Y-80049248D01*
X159812735Y-80109468D01*
X159910790Y-80124999D01*
X159950000Y-80124998D01*
X159950000Y-79737501D01*
X160450000Y-79737501D01*
X160450000Y-80124998D01*
X160450001Y-80124999D01*
X160489209Y-80124999D01*
X160587262Y-80109468D01*
X160705452Y-80049248D01*
X160799248Y-79955452D01*
X160859468Y-79837264D01*
X160875000Y-79739208D01*
X160875000Y-79737501D01*
X160874999Y-79737500D01*
X160450001Y-79737500D01*
X160450000Y-79737501D01*
X159950000Y-79737501D01*
X159949999Y-79737500D01*
X159525002Y-79737500D01*
X159525001Y-79737501D01*
X152400000Y-79737501D01*
X152400000Y-79000000D01*
X155084729Y-79000000D01*
X155084911Y-79001246D01*
X155136213Y-79106187D01*
X155218812Y-79188786D01*
X155323751Y-79240087D01*
X155391784Y-79249999D01*
X155687498Y-79249999D01*
X155687500Y-79249998D01*
X155687500Y-79000001D01*
X156187500Y-79000001D01*
X156187500Y-79249998D01*
X156187501Y-79249999D01*
X156483213Y-79249999D01*
X156483216Y-79249998D01*
X156551250Y-79240087D01*
X156560037Y-79235791D01*
X159525000Y-79235791D01*
X159525000Y-79237499D01*
X159525001Y-79237500D01*
X159949999Y-79237500D01*
X159950000Y-79237499D01*
X159950000Y-78850001D01*
X160450000Y-78850001D01*
X160450000Y-79237499D01*
X160450001Y-79237500D01*
X160874998Y-79237500D01*
X160874999Y-79237499D01*
X160874999Y-79235790D01*
X160859468Y-79137737D01*
X160799248Y-79019547D01*
X160705452Y-78925751D01*
X160587264Y-78865531D01*
X160489209Y-78850000D01*
X160450001Y-78850000D01*
X160450000Y-78850001D01*
X159950000Y-78850001D01*
X159950000Y-78850000D01*
X159949999Y-78849999D01*
X159910791Y-78850000D01*
X159812737Y-78865531D01*
X159694547Y-78925751D01*
X159600751Y-79019547D01*
X159540531Y-79137735D01*
X159525000Y-79235791D01*
X156560037Y-79235791D01*
X156656188Y-79188785D01*
X156683075Y-79161899D01*
X156738786Y-79106187D01*
X156790088Y-79001246D01*
X156790270Y-79000000D01*
X156187501Y-79000000D01*
X156187500Y-79000001D01*
X155687500Y-79000001D01*
X155687499Y-79000000D01*
X155084729Y-79000000D01*
X152400000Y-79000000D01*
X152400000Y-78499999D01*
X155084729Y-78499999D01*
X155084730Y-78500000D01*
X155687499Y-78500000D01*
X155687500Y-78499999D01*
X155687500Y-78250001D01*
X156187500Y-78250001D01*
X156187500Y-78499999D01*
X156187501Y-78500000D01*
X156790270Y-78500000D01*
X156790270Y-78499999D01*
X156790088Y-78498751D01*
X156785267Y-78488889D01*
X156785266Y-78488888D01*
X156778477Y-78475000D01*
X157327934Y-78475000D01*
X157339833Y-78550142D01*
X157339834Y-78550145D01*
X157397359Y-78663044D01*
X157486956Y-78752641D01*
X157599848Y-78810163D01*
X157599852Y-78810164D01*
X157693516Y-78824999D01*
X157749999Y-78824998D01*
X157750000Y-78824998D01*
X157750000Y-78475001D01*
X158250000Y-78475001D01*
X158250000Y-78824998D01*
X158250001Y-78824999D01*
X158306483Y-78824999D01*
X158306485Y-78824998D01*
X158400141Y-78810166D01*
X158400151Y-78810163D01*
X158513043Y-78752641D01*
X158602641Y-78663043D01*
X158660163Y-78550151D01*
X158660164Y-78550147D01*
X158672067Y-78475000D01*
X158250001Y-78475000D01*
X158250000Y-78475001D01*
X157750000Y-78475001D01*
X157749999Y-78475000D01*
X157327934Y-78475000D01*
X156778477Y-78475000D01*
X156738786Y-78393812D01*
X156656187Y-78311213D01*
X156551248Y-78259912D01*
X156483216Y-78250000D01*
X156187501Y-78250000D01*
X156187500Y-78250001D01*
X155687500Y-78250001D01*
X155687499Y-78250000D01*
X155391786Y-78250000D01*
X155391783Y-78250001D01*
X155323749Y-78259912D01*
X155218811Y-78311214D01*
X155136213Y-78393812D01*
X155084911Y-78498753D01*
X155084729Y-78499999D01*
X152400000Y-78499999D01*
X152400000Y-77616740D01*
X152799500Y-77616740D01*
X152799500Y-77983260D01*
X152806118Y-78028682D01*
X152809427Y-78051395D01*
X152838784Y-78111445D01*
X152860802Y-78156483D01*
X152943517Y-78239198D01*
X152991017Y-78262419D01*
X153048604Y-78290572D01*
X153048605Y-78290572D01*
X153048607Y-78290573D01*
X153116740Y-78300500D01*
X153116743Y-78300500D01*
X154208257Y-78300500D01*
X154208260Y-78300500D01*
X154276393Y-78290573D01*
X154381483Y-78239198D01*
X154464198Y-78156483D01*
X154515573Y-78051393D01*
X154525500Y-77983260D01*
X154525500Y-77975000D01*
X157327933Y-77975000D01*
X157749999Y-77975000D01*
X157750000Y-77974999D01*
X157750000Y-77625001D01*
X158250000Y-77625001D01*
X158250000Y-77974999D01*
X158250001Y-77975000D01*
X158672065Y-77975000D01*
X158672066Y-77974999D01*
X158660166Y-77899857D01*
X158660165Y-77899854D01*
X158602640Y-77786955D01*
X158513043Y-77697358D01*
X158441199Y-77660751D01*
X159524500Y-77660751D01*
X159524500Y-78164248D01*
X159540049Y-78262419D01*
X159540050Y-78262423D01*
X159580207Y-78341234D01*
X159600342Y-78380751D01*
X159694249Y-78474658D01*
X159812580Y-78534951D01*
X159879130Y-78545491D01*
X159910751Y-78550500D01*
X159910754Y-78550500D01*
X160489249Y-78550500D01*
X160517803Y-78545976D01*
X160587420Y-78534951D01*
X160705751Y-78474658D01*
X160799658Y-78380751D01*
X160806637Y-78367054D01*
X160823026Y-78350664D01*
X160836655Y-78331907D01*
X160844253Y-78329438D01*
X160849902Y-78323790D01*
X160894846Y-78313000D01*
X161090972Y-78313000D01*
X161149163Y-78331907D01*
X161185127Y-78381407D01*
X161188753Y-78396513D01*
X161189352Y-78400298D01*
X161189355Y-78400307D01*
X161239515Y-78498751D01*
X161246950Y-78513342D01*
X161336658Y-78603050D01*
X161449696Y-78660646D01*
X161543481Y-78675500D01*
X162006518Y-78675499D01*
X162006520Y-78675499D01*
X162006521Y-78675498D01*
X162053411Y-78668072D01*
X162100299Y-78660647D01*
X162100299Y-78660646D01*
X162100304Y-78660646D01*
X162213342Y-78603050D01*
X162303050Y-78513342D01*
X162360646Y-78400304D01*
X162375500Y-78306519D01*
X162375499Y-77693482D01*
X162364654Y-77625001D01*
X162360647Y-77599700D01*
X162360646Y-77599698D01*
X162360646Y-77599696D01*
X162303050Y-77486658D01*
X162213342Y-77396950D01*
X162100304Y-77339354D01*
X162100305Y-77339354D01*
X162006522Y-77324500D01*
X161543479Y-77324500D01*
X161543476Y-77324501D01*
X161449700Y-77339352D01*
X161449695Y-77339354D01*
X161336659Y-77396949D01*
X161246949Y-77486659D01*
X161189354Y-77599694D01*
X161184794Y-77628487D01*
X161181168Y-77635603D01*
X161181168Y-77643593D01*
X161167541Y-77662348D01*
X161157017Y-77683004D01*
X161149899Y-77686630D01*
X161145204Y-77693093D01*
X161123155Y-77700256D01*
X161102500Y-77710781D01*
X161087013Y-77712000D01*
X160968171Y-77712000D01*
X160909980Y-77693093D01*
X160874016Y-77643593D01*
X160870390Y-77628488D01*
X160865830Y-77599699D01*
X160859951Y-77562580D01*
X160799658Y-77444249D01*
X160705751Y-77350342D01*
X160701631Y-77348243D01*
X160587423Y-77290050D01*
X160587420Y-77290049D01*
X160562876Y-77286161D01*
X160489249Y-77274500D01*
X160489246Y-77274500D01*
X159910754Y-77274500D01*
X159910751Y-77274500D01*
X159812580Y-77290049D01*
X159812576Y-77290050D01*
X159694250Y-77350341D01*
X159600341Y-77444250D01*
X159540050Y-77562576D01*
X159540049Y-77562580D01*
X159524500Y-77660751D01*
X158441199Y-77660751D01*
X158400151Y-77639836D01*
X158400147Y-77639835D01*
X158306484Y-77625000D01*
X158250001Y-77625000D01*
X158250000Y-77625001D01*
X157750000Y-77625001D01*
X157750000Y-77624999D01*
X157693518Y-77625000D01*
X157693513Y-77625001D01*
X157599858Y-77639833D01*
X157599848Y-77639836D01*
X157486956Y-77697358D01*
X157397358Y-77786956D01*
X157339836Y-77899848D01*
X157339835Y-77899852D01*
X157327933Y-77975000D01*
X154525500Y-77975000D01*
X154525500Y-77616740D01*
X154515573Y-77548607D01*
X154464198Y-77443517D01*
X154381483Y-77360802D01*
X154340102Y-77340572D01*
X154276395Y-77309427D01*
X154249139Y-77305456D01*
X154208260Y-77299500D01*
X154208257Y-77299500D01*
X154099500Y-77299500D01*
X154041309Y-77280593D01*
X154005345Y-77231093D01*
X154000500Y-77200500D01*
X154000500Y-76666740D01*
X155074500Y-76666740D01*
X155074500Y-77033260D01*
X155081118Y-77078682D01*
X155084427Y-77101395D01*
X155120654Y-77175498D01*
X155135802Y-77206483D01*
X155218517Y-77289198D01*
X155263098Y-77310992D01*
X155323604Y-77340572D01*
X155323605Y-77340572D01*
X155323607Y-77340573D01*
X155391740Y-77350500D01*
X155391743Y-77350500D01*
X156483257Y-77350500D01*
X156483260Y-77350500D01*
X156551393Y-77340573D01*
X156656483Y-77289198D01*
X156739198Y-77206483D01*
X156739423Y-77206021D01*
X156739819Y-77205612D01*
X156743965Y-77199806D01*
X156744835Y-77200427D01*
X156781965Y-77162047D01*
X156828365Y-77150500D01*
X157556016Y-77150500D01*
X157591992Y-77159137D01*
X157592285Y-77158238D01*
X157599694Y-77160645D01*
X157599696Y-77160646D01*
X157693481Y-77175500D01*
X158306518Y-77175499D01*
X158306520Y-77175499D01*
X158306521Y-77175498D01*
X158353411Y-77168072D01*
X158400299Y-77160647D01*
X158400299Y-77160646D01*
X158400304Y-77160646D01*
X158513342Y-77103050D01*
X158603050Y-77013342D01*
X158660646Y-76900304D01*
X158671146Y-76834012D01*
X158698924Y-76779496D01*
X158753441Y-76751719D01*
X158768927Y-76750500D01*
X159559135Y-76750500D01*
X159617326Y-76769407D01*
X159643110Y-76800108D01*
X159643535Y-76799806D01*
X159647384Y-76805197D01*
X159648076Y-76806020D01*
X159648302Y-76806483D01*
X159731017Y-76889198D01*
X159753735Y-76900304D01*
X159836104Y-76940572D01*
X159836105Y-76940572D01*
X159836107Y-76940573D01*
X159904240Y-76950500D01*
X159904243Y-76950500D01*
X160995757Y-76950500D01*
X160995760Y-76950500D01*
X161063893Y-76940573D01*
X161168983Y-76889198D01*
X161251698Y-76806483D01*
X161303073Y-76701393D01*
X161313000Y-76633260D01*
X161313000Y-76266740D01*
X161303073Y-76198607D01*
X161251698Y-76093517D01*
X161202829Y-76044648D01*
X161175054Y-75990134D01*
X161184625Y-75929702D01*
X161202831Y-75904643D01*
X161251286Y-75856187D01*
X161302588Y-75751246D01*
X161302770Y-75750000D01*
X159597229Y-75750000D01*
X159597411Y-75751246D01*
X159648713Y-75856187D01*
X159697169Y-75904643D01*
X159703092Y-75916269D01*
X159712804Y-75924979D01*
X159716641Y-75942861D01*
X159724946Y-75959160D01*
X159722905Y-75972045D01*
X159725643Y-75984803D01*
X159718510Y-75999794D01*
X159715375Y-76019592D01*
X159700866Y-76040747D01*
X159699074Y-76042744D01*
X159648302Y-76093517D01*
X159642027Y-76106351D01*
X159632836Y-76116600D01*
X159617699Y-76125378D01*
X159605535Y-76137953D01*
X159588864Y-76142101D01*
X159579908Y-76147296D01*
X159571482Y-76146427D01*
X159559135Y-76149500D01*
X158656899Y-76149500D01*
X158598708Y-76130593D01*
X158586901Y-76120509D01*
X158513342Y-76046950D01*
X158400304Y-75989354D01*
X158400305Y-75989354D01*
X158306522Y-75974500D01*
X157693479Y-75974500D01*
X157693476Y-75974501D01*
X157599700Y-75989352D01*
X157599695Y-75989354D01*
X157486659Y-76046949D01*
X157396949Y-76136659D01*
X157339354Y-76249695D01*
X157324500Y-76343478D01*
X157324500Y-76450500D01*
X157305593Y-76508691D01*
X157256093Y-76544655D01*
X157225500Y-76549500D01*
X156828365Y-76549500D01*
X156770174Y-76530593D01*
X156744389Y-76499891D01*
X156743965Y-76500194D01*
X156740115Y-76494802D01*
X156739423Y-76493978D01*
X156739198Y-76493518D01*
X156739198Y-76493517D01*
X156656483Y-76410802D01*
X156623726Y-76394788D01*
X156551395Y-76359427D01*
X156524139Y-76355456D01*
X156483260Y-76349500D01*
X156483257Y-76349500D01*
X156399500Y-76349500D01*
X156341309Y-76330593D01*
X156305345Y-76281093D01*
X156300500Y-76250500D01*
X156300500Y-75511007D01*
X156319407Y-75452816D01*
X156368907Y-75416852D01*
X156384012Y-75413226D01*
X156400304Y-75410646D01*
X156513342Y-75353050D01*
X156603050Y-75263342D01*
X156660646Y-75150304D01*
X156675500Y-75056519D01*
X156675499Y-74593482D01*
X156673722Y-74582263D01*
X156660647Y-74499700D01*
X156660646Y-74499698D01*
X156660646Y-74499696D01*
X156603050Y-74386658D01*
X156583132Y-74366740D01*
X159587000Y-74366740D01*
X159587000Y-74733260D01*
X159593618Y-74778682D01*
X159596927Y-74801395D01*
X159638354Y-74886134D01*
X159648302Y-74906483D01*
X159697170Y-74955351D01*
X159724946Y-75009866D01*
X159715375Y-75070298D01*
X159697169Y-75095357D01*
X159648713Y-75143812D01*
X159597411Y-75248753D01*
X159597229Y-75249999D01*
X159597230Y-75250000D01*
X161302770Y-75250000D01*
X161302770Y-75249999D01*
X161302589Y-75248754D01*
X161255948Y-75153349D01*
X161247377Y-75092767D01*
X161276052Y-75038717D01*
X161331021Y-75011844D01*
X161391286Y-75022413D01*
X161414893Y-75039864D01*
X161670504Y-75295475D01*
X161698281Y-75349992D01*
X161699500Y-75365479D01*
X161699500Y-76139564D01*
X161719978Y-76215988D01*
X161719979Y-76215989D01*
X161748558Y-76265489D01*
X161759540Y-76284511D01*
X161859712Y-76384683D01*
X161861325Y-76386461D01*
X161872934Y-76412276D01*
X161885781Y-76437491D01*
X161886101Y-76441556D01*
X161886419Y-76442264D01*
X161886228Y-76443176D01*
X161887000Y-76452978D01*
X161887000Y-76633260D01*
X161893618Y-76678682D01*
X161896927Y-76701395D01*
X161935109Y-76779496D01*
X161948302Y-76806483D01*
X162031017Y-76889198D01*
X162053735Y-76900304D01*
X162136104Y-76940572D01*
X162136105Y-76940572D01*
X162136107Y-76940573D01*
X162204240Y-76950500D01*
X163025500Y-76950500D01*
X163083691Y-76969407D01*
X163119655Y-77018907D01*
X163124500Y-77049500D01*
X163124500Y-77266048D01*
X163105593Y-77324239D01*
X163070446Y-77354257D01*
X162986659Y-77396949D01*
X162896949Y-77486659D01*
X162839354Y-77599695D01*
X162824500Y-77693477D01*
X162824500Y-78306520D01*
X162824501Y-78306523D01*
X162839352Y-78400299D01*
X162839354Y-78400304D01*
X162896950Y-78513342D01*
X162986658Y-78603050D01*
X163099696Y-78660646D01*
X163193481Y-78675500D01*
X163656518Y-78675499D01*
X163656520Y-78675499D01*
X163656521Y-78675498D01*
X163703411Y-78668072D01*
X163750299Y-78660647D01*
X163750299Y-78660646D01*
X163750304Y-78660646D01*
X163863342Y-78603050D01*
X163953050Y-78513342D01*
X164010646Y-78400304D01*
X164016779Y-78361581D01*
X165150000Y-78361581D01*
X165150000Y-78568418D01*
X165190349Y-78771272D01*
X165269501Y-78962360D01*
X165269505Y-78962369D01*
X165301377Y-79010067D01*
X165717036Y-78594407D01*
X165734075Y-78657993D01*
X165799901Y-78772007D01*
X165892993Y-78865099D01*
X166007007Y-78930925D01*
X166070590Y-78947962D01*
X165654931Y-79363621D01*
X165702639Y-79395498D01*
X165893727Y-79474650D01*
X166096581Y-79514999D01*
X166096586Y-79515000D01*
X166303414Y-79515000D01*
X166303418Y-79514999D01*
X166506272Y-79474650D01*
X166697359Y-79395499D01*
X166745068Y-79363621D01*
X166329409Y-78947962D01*
X166392993Y-78930925D01*
X166507007Y-78865099D01*
X166600099Y-78772007D01*
X166665925Y-78657993D01*
X166682962Y-78594409D01*
X167098621Y-79010068D01*
X167130499Y-78962359D01*
X167209650Y-78771272D01*
X167249999Y-78568418D01*
X167250000Y-78568413D01*
X167250000Y-78361586D01*
X167249999Y-78361581D01*
X167209650Y-78158727D01*
X167130498Y-77967639D01*
X167098621Y-77919931D01*
X166682962Y-78335590D01*
X166665925Y-78272007D01*
X166600099Y-78157993D01*
X166507007Y-78064901D01*
X166392993Y-77999075D01*
X166329407Y-77982036D01*
X166745067Y-77566377D01*
X166697369Y-77534505D01*
X166697360Y-77534501D01*
X166506272Y-77455349D01*
X166303418Y-77415000D01*
X166096581Y-77415000D01*
X165893727Y-77455349D01*
X165702638Y-77534501D01*
X165654931Y-77566377D01*
X166070591Y-77982037D01*
X166007007Y-77999075D01*
X165892993Y-78064901D01*
X165799901Y-78157993D01*
X165734075Y-78272007D01*
X165717037Y-78335591D01*
X165301377Y-77919931D01*
X165269501Y-77967638D01*
X165190349Y-78158727D01*
X165150000Y-78361581D01*
X164016779Y-78361581D01*
X164025500Y-78306519D01*
X164025499Y-77693482D01*
X164025498Y-77693477D01*
X164025498Y-77693475D01*
X164013666Y-77618757D01*
X164010647Y-77599699D01*
X164010646Y-77599697D01*
X164010646Y-77599696D01*
X163953050Y-77486658D01*
X163863342Y-77396950D01*
X163861079Y-77395797D01*
X163779554Y-77354257D01*
X163736290Y-77310992D01*
X163725500Y-77266048D01*
X163725500Y-76785437D01*
X163725499Y-76785435D01*
X163705021Y-76709011D01*
X163705019Y-76709007D01*
X163665460Y-76640489D01*
X163641995Y-76617023D01*
X163638369Y-76609907D01*
X163631907Y-76605212D01*
X163624741Y-76583159D01*
X163614219Y-76562506D01*
X163613000Y-76547021D01*
X163613000Y-76452979D01*
X163631907Y-76394788D01*
X163641996Y-76382975D01*
X163770475Y-76254496D01*
X163824992Y-76226719D01*
X163840479Y-76225500D01*
X165050500Y-76225500D01*
X165108691Y-76244407D01*
X165144655Y-76293907D01*
X165149500Y-76324500D01*
X165149500Y-76794746D01*
X165149501Y-76794758D01*
X165161132Y-76853227D01*
X165161134Y-76853233D01*
X165192587Y-76900305D01*
X165205448Y-76919552D01*
X165271769Y-76963867D01*
X165316231Y-76972711D01*
X165330241Y-76975498D01*
X165330246Y-76975498D01*
X165330252Y-76975500D01*
X165330253Y-76975500D01*
X167069747Y-76975500D01*
X167069748Y-76975500D01*
X167128231Y-76963867D01*
X167194552Y-76919552D01*
X167238867Y-76853231D01*
X167250500Y-76794748D01*
X167250500Y-75055252D01*
X167238867Y-74996769D01*
X167194552Y-74930448D01*
X167194548Y-74930445D01*
X167128233Y-74886134D01*
X167128231Y-74886133D01*
X167128228Y-74886132D01*
X167128227Y-74886132D01*
X167069758Y-74874501D01*
X167069748Y-74874500D01*
X165330252Y-74874500D01*
X165330251Y-74874500D01*
X165330241Y-74874501D01*
X165271772Y-74886132D01*
X165271766Y-74886134D01*
X165205451Y-74930445D01*
X165205445Y-74930451D01*
X165161134Y-74996766D01*
X165161132Y-74996772D01*
X165149501Y-75055241D01*
X165149500Y-75055253D01*
X165149500Y-75525500D01*
X165130593Y-75583691D01*
X165081093Y-75619655D01*
X165050500Y-75624500D01*
X163635435Y-75624500D01*
X163559011Y-75644978D01*
X163559007Y-75644980D01*
X163490489Y-75684539D01*
X163254524Y-75920504D01*
X163200008Y-75948281D01*
X163184521Y-75949500D01*
X162399500Y-75949500D01*
X162341309Y-75930593D01*
X162305345Y-75881093D01*
X162300500Y-75850500D01*
X162300500Y-75153949D01*
X162302333Y-75153949D01*
X162311908Y-75102267D01*
X162356288Y-75060147D01*
X162398914Y-75050500D01*
X163295757Y-75050500D01*
X163295760Y-75050500D01*
X163363893Y-75040573D01*
X163468983Y-74989198D01*
X163551698Y-74906483D01*
X163603073Y-74801393D01*
X163613000Y-74733260D01*
X163613000Y-74366740D01*
X163603073Y-74298607D01*
X163602263Y-74296951D01*
X163566845Y-74224501D01*
X163551698Y-74193517D01*
X163468983Y-74110802D01*
X163468981Y-74110801D01*
X163363895Y-74059427D01*
X163336639Y-74055456D01*
X163295760Y-74049500D01*
X163295757Y-74049500D01*
X163199500Y-74049500D01*
X163184588Y-74044655D01*
X163168907Y-74044655D01*
X163156221Y-74035438D01*
X163141309Y-74030593D01*
X163132092Y-74017907D01*
X163119407Y-74008691D01*
X163114561Y-73993778D01*
X163105345Y-73981093D01*
X163100500Y-73950500D01*
X163100500Y-73774500D01*
X163119407Y-73716309D01*
X163168907Y-73680345D01*
X163199500Y-73675500D01*
X163233490Y-73675500D01*
X163254885Y-73672111D01*
X163333126Y-73659719D01*
X163453220Y-73598528D01*
X163472253Y-73579494D01*
X163526768Y-73551719D01*
X163542255Y-73550500D01*
X164110570Y-73550500D01*
X164168761Y-73569407D01*
X164198779Y-73604554D01*
X164250342Y-73705751D01*
X164344249Y-73799658D01*
X164462580Y-73859951D01*
X164529130Y-73870491D01*
X164560751Y-73875500D01*
X164560754Y-73875500D01*
X165064249Y-73875500D01*
X165092803Y-73870976D01*
X165162420Y-73859951D01*
X165280751Y-73799658D01*
X165374658Y-73705751D01*
X165434951Y-73587420D01*
X165448749Y-73500304D01*
X165450500Y-73489248D01*
X165450500Y-72910751D01*
X165440830Y-72849700D01*
X165434951Y-72812580D01*
X165374658Y-72694249D01*
X165280751Y-72600342D01*
X165219265Y-72569013D01*
X165162423Y-72540050D01*
X165162420Y-72540049D01*
X165137876Y-72536161D01*
X165064249Y-72524500D01*
X165064246Y-72524500D01*
X164560754Y-72524500D01*
X164560751Y-72524500D01*
X164462580Y-72540049D01*
X164462576Y-72540050D01*
X164344250Y-72600341D01*
X164250341Y-72694250D01*
X164198779Y-72795446D01*
X164155514Y-72838710D01*
X164110570Y-72849500D01*
X163724500Y-72849500D01*
X163666309Y-72830593D01*
X163630345Y-72781093D01*
X163625500Y-72750500D01*
X163625500Y-72716510D01*
X163616022Y-72656673D01*
X163609719Y-72616874D01*
X163609716Y-72616869D01*
X163609716Y-72616867D01*
X163548529Y-72496782D01*
X163548528Y-72496780D01*
X163453220Y-72401472D01*
X163453217Y-72401470D01*
X163333132Y-72340283D01*
X163333127Y-72340281D01*
X163333126Y-72340281D01*
X163299913Y-72335020D01*
X163233490Y-72324500D01*
X163233488Y-72324500D01*
X162716512Y-72324500D01*
X162716510Y-72324500D01*
X162616874Y-72340281D01*
X162616867Y-72340283D01*
X162496782Y-72401470D01*
X162401470Y-72496782D01*
X162340283Y-72616867D01*
X162340281Y-72616874D01*
X162324500Y-72716510D01*
X162324500Y-73283490D01*
X162340281Y-73383127D01*
X162340282Y-73383129D01*
X162388709Y-73478172D01*
X162399500Y-73523117D01*
X162399500Y-73950500D01*
X162380593Y-74008691D01*
X162331093Y-74044655D01*
X162300500Y-74049500D01*
X162204240Y-74049500D01*
X162170173Y-74054463D01*
X162136104Y-74059427D01*
X162031018Y-74110801D01*
X161948301Y-74193518D01*
X161896927Y-74298604D01*
X161887000Y-74366743D01*
X161887000Y-74423021D01*
X161868093Y-74481212D01*
X161818593Y-74517176D01*
X161757407Y-74517176D01*
X161717997Y-74493025D01*
X161534510Y-74309539D01*
X161515574Y-74298607D01*
X161512705Y-74296950D01*
X161512703Y-74296949D01*
X161483086Y-74279850D01*
X161465988Y-74269978D01*
X161389564Y-74249500D01*
X161389562Y-74249500D01*
X161340865Y-74249500D01*
X161282674Y-74230593D01*
X161256889Y-74199891D01*
X161256465Y-74200194D01*
X161252615Y-74194802D01*
X161251923Y-74193978D01*
X161251698Y-74193518D01*
X161251698Y-74193517D01*
X161168983Y-74110802D01*
X161168981Y-74110801D01*
X161063895Y-74059427D01*
X161036639Y-74055456D01*
X160995760Y-74049500D01*
X159904240Y-74049500D01*
X159870173Y-74054463D01*
X159836104Y-74059427D01*
X159731018Y-74110801D01*
X159648301Y-74193518D01*
X159596927Y-74298604D01*
X159596927Y-74298607D01*
X159587000Y-74366740D01*
X156583132Y-74366740D01*
X156513342Y-74296950D01*
X156400304Y-74239354D01*
X156400305Y-74239354D01*
X156306522Y-74224500D01*
X155693479Y-74224500D01*
X155693476Y-74224501D01*
X155599700Y-74239352D01*
X155599695Y-74239354D01*
X155486659Y-74296949D01*
X155396949Y-74386659D01*
X155339354Y-74499695D01*
X155324500Y-74593477D01*
X155324500Y-75056520D01*
X155324501Y-75056523D01*
X155339352Y-75150299D01*
X155339354Y-75150304D01*
X155396950Y-75263342D01*
X155486658Y-75353050D01*
X155582946Y-75402111D01*
X155626210Y-75445375D01*
X155637000Y-75490320D01*
X155637000Y-76250500D01*
X155618093Y-76308691D01*
X155568593Y-76344655D01*
X155538000Y-76349500D01*
X155391740Y-76349500D01*
X155357673Y-76354463D01*
X155323604Y-76359427D01*
X155218518Y-76410801D01*
X155135801Y-76493518D01*
X155084427Y-76598604D01*
X155081744Y-76617023D01*
X155074500Y-76666740D01*
X154000500Y-76666740D01*
X154000500Y-75061007D01*
X154019407Y-75002816D01*
X154068907Y-74966852D01*
X154084012Y-74963226D01*
X154100304Y-74960646D01*
X154213342Y-74903050D01*
X154303050Y-74813342D01*
X154360646Y-74700304D01*
X154375500Y-74606519D01*
X154375499Y-74143482D01*
X154373722Y-74132263D01*
X154360647Y-74049700D01*
X154360646Y-74049698D01*
X154360646Y-74049696D01*
X154303050Y-73936658D01*
X154213342Y-73846950D01*
X154100304Y-73789354D01*
X154100305Y-73789354D01*
X154006522Y-73774500D01*
X153393479Y-73774500D01*
X153393476Y-73774501D01*
X153299700Y-73789352D01*
X153299695Y-73789354D01*
X153186659Y-73846949D01*
X153096949Y-73936659D01*
X153039354Y-74049695D01*
X153024500Y-74143477D01*
X153024500Y-74606520D01*
X153024501Y-74606523D01*
X153039352Y-74700299D01*
X153039354Y-74700304D01*
X153096950Y-74813342D01*
X153186658Y-74903050D01*
X153299696Y-74960646D01*
X153315986Y-74963226D01*
X153370503Y-74991003D01*
X153398281Y-75045519D01*
X153399500Y-75061007D01*
X153399500Y-77200500D01*
X153380593Y-77258691D01*
X153331093Y-77294655D01*
X153300500Y-77299500D01*
X153116740Y-77299500D01*
X153082673Y-77304463D01*
X153048604Y-77309427D01*
X152943518Y-77360801D01*
X152860801Y-77443518D01*
X152809427Y-77548604D01*
X152807391Y-77562580D01*
X152799500Y-77616740D01*
X152400000Y-77616740D01*
X152400000Y-73199500D01*
X152418907Y-73141309D01*
X152468407Y-73105345D01*
X152499000Y-73100500D01*
X153004263Y-73100500D01*
X153062454Y-73119407D01*
X153092472Y-73154554D01*
X153096950Y-73163342D01*
X153186658Y-73253050D01*
X153299696Y-73310646D01*
X153393481Y-73325500D01*
X154006518Y-73325499D01*
X154006520Y-73325499D01*
X154006521Y-73325498D01*
X154053411Y-73318072D01*
X154100299Y-73310647D01*
X154100299Y-73310646D01*
X154100304Y-73310646D01*
X154213342Y-73253050D01*
X154303050Y-73163342D01*
X154360646Y-73050304D01*
X154375500Y-72956519D01*
X154375499Y-72493482D01*
X154371860Y-72470503D01*
X154360647Y-72399700D01*
X154360646Y-72399698D01*
X154360646Y-72399696D01*
X154303050Y-72286658D01*
X154213342Y-72196950D01*
X154100304Y-72139354D01*
X154100305Y-72139354D01*
X154006522Y-72124500D01*
X153393479Y-72124500D01*
X153393476Y-72124501D01*
X153299700Y-72139352D01*
X153299695Y-72139354D01*
X153186659Y-72196949D01*
X153096949Y-72286659D01*
X153039354Y-72399695D01*
X153036774Y-72415986D01*
X153008997Y-72470503D01*
X152954481Y-72498281D01*
X152938993Y-72499500D01*
X152499000Y-72499500D01*
X152440809Y-72480593D01*
X152404845Y-72431093D01*
X152400000Y-72400500D01*
X152400000Y-68780253D01*
X154349500Y-68780253D01*
X154349500Y-70019746D01*
X154349501Y-70019758D01*
X154361132Y-70078227D01*
X154361134Y-70078233D01*
X154405445Y-70144548D01*
X154405448Y-70144552D01*
X154471769Y-70188867D01*
X154512566Y-70196982D01*
X154530241Y-70200498D01*
X154530246Y-70200498D01*
X154530252Y-70200500D01*
X155425500Y-70200500D01*
X155483691Y-70219407D01*
X155519655Y-70268907D01*
X155524500Y-70299500D01*
X155524500Y-70782744D01*
X155505593Y-70840935D01*
X155495504Y-70852747D01*
X155451473Y-70896778D01*
X155451470Y-70896782D01*
X155390283Y-71016867D01*
X155390281Y-71016874D01*
X155374944Y-71113710D01*
X155374500Y-71116512D01*
X155374500Y-71683488D01*
X155389715Y-71779555D01*
X155390281Y-71783125D01*
X155390283Y-71783132D01*
X155451470Y-71903217D01*
X155451472Y-71903220D01*
X155495505Y-71947253D01*
X155523281Y-72001768D01*
X155524500Y-72017255D01*
X155524500Y-72569013D01*
X155505593Y-72627204D01*
X155491762Y-72641035D01*
X155492168Y-72641441D01*
X155486659Y-72646949D01*
X155486658Y-72646950D01*
X155439359Y-72694249D01*
X155396949Y-72736659D01*
X155339354Y-72849695D01*
X155324500Y-72943477D01*
X155324500Y-73406520D01*
X155324501Y-73406523D01*
X155339352Y-73500299D01*
X155339354Y-73500304D01*
X155396950Y-73613342D01*
X155486658Y-73703050D01*
X155599696Y-73760646D01*
X155693481Y-73775500D01*
X156306518Y-73775499D01*
X156306520Y-73775499D01*
X156306521Y-73775498D01*
X156353411Y-73768072D01*
X156400299Y-73760647D01*
X156400299Y-73760646D01*
X156400304Y-73760646D01*
X156513342Y-73703050D01*
X156603050Y-73613342D01*
X156660646Y-73500304D01*
X156671926Y-73429081D01*
X156675500Y-73406521D01*
X156675500Y-73283453D01*
X160775000Y-73283453D01*
X160790760Y-73382965D01*
X160790762Y-73382969D01*
X160851881Y-73502921D01*
X160947078Y-73598118D01*
X161067030Y-73659237D01*
X161067029Y-73659237D01*
X161166540Y-73674998D01*
X161166551Y-73674999D01*
X161175000Y-73674998D01*
X161175000Y-73250001D01*
X161675000Y-73250001D01*
X161675000Y-73674998D01*
X161675001Y-73674999D01*
X161683453Y-73674999D01*
X161782965Y-73659239D01*
X161782969Y-73659237D01*
X161902921Y-73598118D01*
X161998118Y-73502921D01*
X162059237Y-73382969D01*
X162075000Y-73283453D01*
X162075000Y-73250001D01*
X162074999Y-73250000D01*
X161675001Y-73250000D01*
X161675000Y-73250001D01*
X161175000Y-73250001D01*
X161174999Y-73250000D01*
X160775002Y-73250000D01*
X160775001Y-73250001D01*
X160775001Y-73283453D01*
X160775000Y-73283453D01*
X156675500Y-73283453D01*
X156675500Y-73208993D01*
X156675499Y-72943479D01*
X156675498Y-72943476D01*
X156660647Y-72849700D01*
X156660646Y-72849698D01*
X156660646Y-72849696D01*
X156603050Y-72736658D01*
X156582938Y-72716546D01*
X160775000Y-72716546D01*
X160775000Y-72749999D01*
X160775001Y-72750000D01*
X161174999Y-72750000D01*
X161175000Y-72749999D01*
X161175000Y-72325001D01*
X161675000Y-72325001D01*
X161675000Y-72749999D01*
X161675001Y-72750000D01*
X162074998Y-72750000D01*
X162074999Y-72749999D01*
X162074999Y-72716546D01*
X162059239Y-72617034D01*
X162059237Y-72617030D01*
X161998118Y-72497078D01*
X161902921Y-72401881D01*
X161782969Y-72340762D01*
X161782970Y-72340762D01*
X161683454Y-72325000D01*
X161675001Y-72325000D01*
X161675000Y-72325001D01*
X161175000Y-72325001D01*
X161175000Y-72324999D01*
X161166558Y-72325000D01*
X161166544Y-72325001D01*
X161067035Y-72340760D01*
X161067030Y-72340762D01*
X160947078Y-72401881D01*
X160851881Y-72497078D01*
X160790762Y-72617030D01*
X160775000Y-72716546D01*
X156582938Y-72716546D01*
X156551023Y-72684631D01*
X156547904Y-72680822D01*
X156538482Y-72656673D01*
X156526719Y-72633586D01*
X156526022Y-72624738D01*
X156525665Y-72623822D01*
X156525884Y-72622984D01*
X156525500Y-72618100D01*
X156525500Y-72017255D01*
X156544407Y-71959064D01*
X156554490Y-71947257D01*
X156598528Y-71903220D01*
X156659719Y-71783126D01*
X156675500Y-71683488D01*
X156675500Y-71683453D01*
X156925000Y-71683453D01*
X156940760Y-71782965D01*
X156940762Y-71782969D01*
X157001881Y-71902921D01*
X157097078Y-71998118D01*
X157217030Y-72059237D01*
X157217029Y-72059237D01*
X157316540Y-72074998D01*
X157316551Y-72074999D01*
X157325000Y-72074998D01*
X157325000Y-71650001D01*
X157825000Y-71650001D01*
X157825000Y-72074998D01*
X157825001Y-72074999D01*
X157833453Y-72074999D01*
X157932965Y-72059239D01*
X157932969Y-72059237D01*
X158052921Y-71998118D01*
X158148118Y-71902921D01*
X158209237Y-71782969D01*
X158225000Y-71683453D01*
X158225000Y-71650001D01*
X158224999Y-71650000D01*
X157825001Y-71650000D01*
X157825000Y-71650001D01*
X157325000Y-71650001D01*
X157324999Y-71650000D01*
X156925002Y-71650000D01*
X156925001Y-71650001D01*
X156925001Y-71683453D01*
X156925000Y-71683453D01*
X156675500Y-71683453D01*
X156675500Y-71116546D01*
X156925000Y-71116546D01*
X156925000Y-71149999D01*
X156925001Y-71150000D01*
X157324999Y-71150000D01*
X157325000Y-71149999D01*
X157325000Y-70725001D01*
X157825000Y-70725001D01*
X157825000Y-71149999D01*
X157825001Y-71150000D01*
X158224998Y-71150000D01*
X158224999Y-71149999D01*
X158224999Y-71116546D01*
X158209239Y-71017034D01*
X158209237Y-71017030D01*
X158148118Y-70897078D01*
X158052921Y-70801881D01*
X157932969Y-70740762D01*
X157932970Y-70740762D01*
X157833454Y-70725000D01*
X157825001Y-70725000D01*
X157825000Y-70725001D01*
X157325000Y-70725001D01*
X157325000Y-70724999D01*
X157316558Y-70725000D01*
X157316544Y-70725001D01*
X157217035Y-70740760D01*
X157217030Y-70740762D01*
X157097078Y-70801881D01*
X157001881Y-70897078D01*
X156940762Y-71017030D01*
X156925000Y-71116546D01*
X156675500Y-71116546D01*
X156675500Y-71116512D01*
X156672836Y-71099695D01*
X156671703Y-71092541D01*
X156659719Y-71016874D01*
X156659716Y-71016869D01*
X156659716Y-71016867D01*
X156598529Y-70896782D01*
X156598528Y-70896780D01*
X156598526Y-70896778D01*
X156554496Y-70852747D01*
X156526719Y-70798230D01*
X156525500Y-70782744D01*
X156525500Y-70299500D01*
X156544407Y-70241309D01*
X156593907Y-70205345D01*
X156624500Y-70200500D01*
X158269747Y-70200500D01*
X158269748Y-70200500D01*
X158328231Y-70188867D01*
X158394552Y-70144552D01*
X158438867Y-70078231D01*
X158450500Y-70019748D01*
X158450500Y-69949500D01*
X158469407Y-69891309D01*
X158518907Y-69855345D01*
X158549500Y-69850500D01*
X159457285Y-69850500D01*
X159515476Y-69869407D01*
X159551440Y-69918907D01*
X159555249Y-69935219D01*
X159557330Y-69949500D01*
X159559427Y-69963895D01*
X159610801Y-70068981D01*
X159610802Y-70068983D01*
X159620505Y-70078686D01*
X159648281Y-70133201D01*
X159649500Y-70148688D01*
X159649500Y-70557886D01*
X159638709Y-70602832D01*
X159589354Y-70699694D01*
X159574500Y-70793477D01*
X159574500Y-71406520D01*
X159574501Y-71406523D01*
X159589352Y-71500299D01*
X159589354Y-71500304D01*
X159646950Y-71613342D01*
X159736658Y-71703050D01*
X159849696Y-71760646D01*
X159943481Y-71775500D01*
X160406518Y-71775499D01*
X160406520Y-71775499D01*
X160406521Y-71775498D01*
X160453411Y-71768072D01*
X160500299Y-71760647D01*
X160500299Y-71760646D01*
X160500304Y-71760646D01*
X160613342Y-71703050D01*
X160703050Y-71613342D01*
X160760646Y-71500304D01*
X160775500Y-71406519D01*
X160775499Y-70793482D01*
X160775498Y-70793477D01*
X161224500Y-70793477D01*
X161224500Y-71406520D01*
X161224501Y-71406523D01*
X161239352Y-71500299D01*
X161239354Y-71500304D01*
X161296950Y-71613342D01*
X161386658Y-71703050D01*
X161499696Y-71760646D01*
X161593481Y-71775500D01*
X162056518Y-71775499D01*
X162056520Y-71775499D01*
X162056521Y-71775498D01*
X162090489Y-71770118D01*
X162150300Y-71760647D01*
X162150301Y-71760647D01*
X162150302Y-71760646D01*
X162150304Y-71760646D01*
X162182175Y-71744407D01*
X162198106Y-71736290D01*
X162243050Y-71725500D01*
X162866049Y-71725500D01*
X162924240Y-71744407D01*
X162954257Y-71779552D01*
X162996950Y-71863342D01*
X163086658Y-71953050D01*
X163199696Y-72010646D01*
X163293481Y-72025500D01*
X163906518Y-72025499D01*
X163906520Y-72025499D01*
X163906521Y-72025498D01*
X163958573Y-72017255D01*
X164000299Y-72010647D01*
X164000299Y-72010646D01*
X164000304Y-72010646D01*
X164113342Y-71953050D01*
X164203050Y-71863342D01*
X164260646Y-71750304D01*
X164275500Y-71656519D01*
X164275499Y-71193482D01*
X164263309Y-71116510D01*
X164260647Y-71099700D01*
X164260646Y-71099698D01*
X164260646Y-71099696D01*
X164203050Y-70986658D01*
X164113342Y-70896950D01*
X164000304Y-70839354D01*
X164000305Y-70839354D01*
X163906522Y-70824500D01*
X163293479Y-70824500D01*
X163293476Y-70824501D01*
X163199700Y-70839352D01*
X163199695Y-70839354D01*
X163086659Y-70896949D01*
X163086658Y-70896950D01*
X162996950Y-70986658D01*
X162954257Y-71070446D01*
X162910994Y-71113710D01*
X162866049Y-71124500D01*
X162524500Y-71124500D01*
X162466309Y-71105593D01*
X162430345Y-71056093D01*
X162425500Y-71025500D01*
X162425499Y-70793479D01*
X162425498Y-70793476D01*
X162410647Y-70699700D01*
X162410646Y-70699698D01*
X162410646Y-70699696D01*
X162353050Y-70586658D01*
X162279494Y-70513102D01*
X162251719Y-70458588D01*
X162250500Y-70443101D01*
X162250500Y-70240865D01*
X162269407Y-70182674D01*
X162300108Y-70156889D01*
X162299806Y-70156465D01*
X162305197Y-70152615D01*
X162306020Y-70151923D01*
X162306483Y-70151698D01*
X162389198Y-70068983D01*
X162410700Y-70025000D01*
X162927934Y-70025000D01*
X162939833Y-70100142D01*
X162939834Y-70100145D01*
X162997359Y-70213044D01*
X163086956Y-70302641D01*
X163199848Y-70360163D01*
X163199852Y-70360164D01*
X163293516Y-70374999D01*
X163349999Y-70374998D01*
X163350000Y-70374998D01*
X163350000Y-70025001D01*
X163850000Y-70025001D01*
X163850000Y-70374998D01*
X163850001Y-70374999D01*
X163906483Y-70374999D01*
X163906485Y-70374998D01*
X164000141Y-70360166D01*
X164000151Y-70360163D01*
X164113043Y-70302641D01*
X164158962Y-70256723D01*
X164202641Y-70213043D01*
X164260163Y-70100151D01*
X164260164Y-70100147D01*
X164272067Y-70025000D01*
X163850001Y-70025000D01*
X163850000Y-70025001D01*
X163350000Y-70025001D01*
X163349999Y-70025000D01*
X162927934Y-70025000D01*
X162410700Y-70025000D01*
X162440573Y-69963893D01*
X162450500Y-69895760D01*
X162450500Y-68804240D01*
X162440573Y-68736107D01*
X162390389Y-68633453D01*
X162925000Y-68633453D01*
X162940760Y-68732965D01*
X162940762Y-68732969D01*
X163001881Y-68852921D01*
X163097077Y-68948117D01*
X163213812Y-69007597D01*
X163257077Y-69050862D01*
X163266648Y-69111294D01*
X163238870Y-69165811D01*
X163206473Y-69185665D01*
X163206795Y-69186297D01*
X163086956Y-69247358D01*
X162997358Y-69336956D01*
X162939836Y-69449848D01*
X162939835Y-69449852D01*
X162927933Y-69525000D01*
X163349999Y-69525000D01*
X163350000Y-69524999D01*
X163350000Y-69175000D01*
X163345003Y-69170004D01*
X163317225Y-69115487D01*
X163326796Y-69055055D01*
X163345002Y-69029995D01*
X163350000Y-69024997D01*
X163350000Y-68625001D01*
X163850000Y-68625001D01*
X163850000Y-69024998D01*
X163854997Y-69029995D01*
X163882774Y-69084512D01*
X163873203Y-69144944D01*
X163854998Y-69170002D01*
X163850000Y-69175000D01*
X163850000Y-69524999D01*
X163850001Y-69525000D01*
X164272065Y-69525000D01*
X164272066Y-69524999D01*
X164260166Y-69449857D01*
X164260164Y-69449852D01*
X164235613Y-69401667D01*
X164235612Y-69401666D01*
X164202640Y-69336955D01*
X164113043Y-69247358D01*
X163993205Y-69186297D01*
X163993823Y-69185083D01*
X163951036Y-69153994D01*
X163932132Y-69095802D01*
X163951042Y-69037612D01*
X163986187Y-69007597D01*
X164102922Y-68948117D01*
X164198118Y-68852921D01*
X164259237Y-68732969D01*
X164275000Y-68633453D01*
X164275000Y-68625001D01*
X164274999Y-68625000D01*
X163850001Y-68625000D01*
X163850000Y-68625001D01*
X163350000Y-68625001D01*
X163349999Y-68625000D01*
X162925002Y-68625000D01*
X162925001Y-68625001D01*
X162925001Y-68633453D01*
X162925000Y-68633453D01*
X162390389Y-68633453D01*
X162389198Y-68631017D01*
X162306483Y-68548302D01*
X162278261Y-68534505D01*
X162201395Y-68496927D01*
X162174139Y-68492956D01*
X162133260Y-68487000D01*
X161766740Y-68487000D01*
X161732673Y-68491963D01*
X161698604Y-68496927D01*
X161593518Y-68548301D01*
X161593517Y-68548301D01*
X161593517Y-68548302D01*
X161544648Y-68597170D01*
X161490134Y-68624946D01*
X161429702Y-68615375D01*
X161404643Y-68597169D01*
X161356187Y-68548713D01*
X161251246Y-68497411D01*
X161250000Y-68497229D01*
X161250000Y-70202769D01*
X161251248Y-70202588D01*
X161356187Y-70151286D01*
X161404643Y-70102831D01*
X161416269Y-70096907D01*
X161424979Y-70087196D01*
X161442861Y-70083358D01*
X161459160Y-70075054D01*
X161472045Y-70077094D01*
X161484803Y-70074357D01*
X161499794Y-70081489D01*
X161519592Y-70084625D01*
X161540747Y-70099134D01*
X161542744Y-70100925D01*
X161593517Y-70151698D01*
X161606351Y-70157972D01*
X161616600Y-70167164D01*
X161625378Y-70182300D01*
X161637953Y-70194465D01*
X161642101Y-70211135D01*
X161647296Y-70220092D01*
X161646427Y-70228517D01*
X161649500Y-70240865D01*
X161649500Y-70331073D01*
X161630593Y-70389264D01*
X161581093Y-70425228D01*
X161565987Y-70428854D01*
X161499699Y-70439352D01*
X161499695Y-70439354D01*
X161386659Y-70496949D01*
X161296949Y-70586659D01*
X161239354Y-70699695D01*
X161224500Y-70793477D01*
X160775498Y-70793477D01*
X160775498Y-70793475D01*
X160760647Y-70699700D01*
X160760646Y-70699698D01*
X160760646Y-70699696D01*
X160703050Y-70586658D01*
X160613342Y-70496950D01*
X160538053Y-70458588D01*
X160504554Y-70441519D01*
X160488164Y-70425129D01*
X160469407Y-70411501D01*
X160466938Y-70403902D01*
X160461290Y-70398254D01*
X160450500Y-70353310D01*
X160450500Y-70196982D01*
X160469407Y-70138791D01*
X160518907Y-70102827D01*
X160580093Y-70102827D01*
X160619504Y-70126978D01*
X160643812Y-70151286D01*
X160748751Y-70202588D01*
X160750000Y-70202769D01*
X160750000Y-68497230D01*
X160749999Y-68497229D01*
X160748753Y-68497411D01*
X160643812Y-68548713D01*
X160595357Y-68597169D01*
X160540840Y-68624946D01*
X160480408Y-68615375D01*
X160455352Y-68597171D01*
X160406483Y-68548302D01*
X160378261Y-68534505D01*
X160301395Y-68496927D01*
X160274139Y-68492956D01*
X160233260Y-68487000D01*
X159866740Y-68487000D01*
X159832673Y-68491963D01*
X159798604Y-68496927D01*
X159693518Y-68548301D01*
X159610801Y-68631018D01*
X159559427Y-68736104D01*
X159559427Y-68736107D01*
X159555250Y-68764774D01*
X159528152Y-68819630D01*
X159473984Y-68848082D01*
X159457285Y-68849500D01*
X158545522Y-68849500D01*
X158487331Y-68830593D01*
X158451367Y-68781093D01*
X158448425Y-68769816D01*
X158441094Y-68732965D01*
X158438867Y-68721769D01*
X158394552Y-68655448D01*
X158357991Y-68631018D01*
X158328233Y-68611134D01*
X158328231Y-68611133D01*
X158328228Y-68611132D01*
X158328227Y-68611132D01*
X158269758Y-68599501D01*
X158269748Y-68599500D01*
X154530252Y-68599500D01*
X154530251Y-68599500D01*
X154530241Y-68599501D01*
X154471772Y-68611132D01*
X154471766Y-68611134D01*
X154405451Y-68655445D01*
X154405445Y-68655451D01*
X154361134Y-68721766D01*
X154361132Y-68721772D01*
X154349501Y-68780241D01*
X154349500Y-68780253D01*
X152400000Y-68780253D01*
X152400000Y-68116546D01*
X162925000Y-68116546D01*
X162925000Y-68124999D01*
X162925001Y-68125000D01*
X163349999Y-68125000D01*
X163350000Y-68124999D01*
X163350000Y-67725001D01*
X163850000Y-67725001D01*
X163850000Y-68124999D01*
X163850001Y-68125000D01*
X164274998Y-68125000D01*
X164274999Y-68124999D01*
X164274999Y-68116546D01*
X164259239Y-68017034D01*
X164259237Y-68017030D01*
X164198118Y-67897078D01*
X164102921Y-67801881D01*
X163982969Y-67740762D01*
X163982970Y-67740762D01*
X163883454Y-67725000D01*
X163850001Y-67725000D01*
X163850000Y-67725001D01*
X163350000Y-67725001D01*
X163350000Y-67725000D01*
X163316547Y-67725000D01*
X163316544Y-67725001D01*
X163217034Y-67740760D01*
X163217030Y-67740762D01*
X163097078Y-67801881D01*
X163001881Y-67897078D01*
X162940762Y-68017030D01*
X162925000Y-68116546D01*
X152400000Y-68116546D01*
X152400000Y-65980254D01*
X154349500Y-65980254D01*
X154349500Y-67219747D01*
X154349501Y-67219759D01*
X154361132Y-67278228D01*
X154361134Y-67278234D01*
X154400563Y-67337242D01*
X154405448Y-67344553D01*
X154471769Y-67388868D01*
X154516231Y-67397712D01*
X154530241Y-67400499D01*
X154530246Y-67400499D01*
X154530252Y-67400501D01*
X154530253Y-67400501D01*
X158269747Y-67400501D01*
X158269748Y-67400501D01*
X158328231Y-67388868D01*
X158394552Y-67344553D01*
X158438867Y-67278232D01*
X158449445Y-67225048D01*
X158479342Y-67171667D01*
X158534907Y-67146051D01*
X158594917Y-67157988D01*
X158616546Y-67174361D01*
X158892685Y-67450499D01*
X158892690Y-67450503D01*
X159006810Y-67516390D01*
X159006808Y-67516390D01*
X159006812Y-67516391D01*
X159006814Y-67516392D01*
X159134108Y-67550500D01*
X159265893Y-67550500D01*
X159457285Y-67550500D01*
X159515476Y-67569407D01*
X159551440Y-67618907D01*
X159555249Y-67635219D01*
X159558128Y-67654977D01*
X159559427Y-67663895D01*
X159610801Y-67768981D01*
X159610802Y-67768983D01*
X159693517Y-67851698D01*
X159706028Y-67857814D01*
X159798604Y-67903072D01*
X159798605Y-67903072D01*
X159798607Y-67903073D01*
X159866740Y-67913000D01*
X159866743Y-67913000D01*
X160233257Y-67913000D01*
X160233260Y-67913000D01*
X160301393Y-67903073D01*
X160406483Y-67851698D01*
X160489198Y-67768983D01*
X160540573Y-67663893D01*
X160544749Y-67635225D01*
X160571848Y-67580370D01*
X160626016Y-67551918D01*
X160642715Y-67550500D01*
X161357285Y-67550500D01*
X161415476Y-67569407D01*
X161451440Y-67618907D01*
X161455249Y-67635219D01*
X161458128Y-67654977D01*
X161459427Y-67663895D01*
X161510801Y-67768981D01*
X161510802Y-67768983D01*
X161593517Y-67851698D01*
X161606028Y-67857814D01*
X161698604Y-67903072D01*
X161698605Y-67903072D01*
X161698607Y-67903073D01*
X161766740Y-67913000D01*
X161766743Y-67913000D01*
X162133257Y-67913000D01*
X162133260Y-67913000D01*
X162201393Y-67903073D01*
X162306483Y-67851698D01*
X162389198Y-67768983D01*
X162440573Y-67663893D01*
X162444749Y-67635225D01*
X162471848Y-67580370D01*
X162526016Y-67551918D01*
X162537577Y-67550936D01*
X162540889Y-67550500D01*
X162540892Y-67550500D01*
X162668186Y-67516392D01*
X162668188Y-67516390D01*
X162668190Y-67516390D01*
X162782309Y-67450503D01*
X162782309Y-67450502D01*
X162782314Y-67450500D01*
X162843948Y-67388866D01*
X162878319Y-67354496D01*
X162885435Y-67350870D01*
X162890131Y-67344407D01*
X162912180Y-67337242D01*
X162932835Y-67326719D01*
X162948322Y-67325500D01*
X162982744Y-67325500D01*
X163040935Y-67344407D01*
X163052747Y-67354496D01*
X163087118Y-67388866D01*
X163096780Y-67398528D01*
X163096782Y-67398529D01*
X163216867Y-67459716D01*
X163216869Y-67459716D01*
X163216874Y-67459719D01*
X163292541Y-67471703D01*
X163316510Y-67475500D01*
X163316512Y-67475500D01*
X163883490Y-67475500D01*
X163904885Y-67472111D01*
X163983126Y-67459719D01*
X164103220Y-67398528D01*
X164125237Y-67376511D01*
X164147253Y-67354496D01*
X164201770Y-67326719D01*
X164217256Y-67325500D01*
X165050500Y-67325500D01*
X165108691Y-67344407D01*
X165144655Y-67393907D01*
X165149500Y-67424500D01*
X165149500Y-67794746D01*
X165149501Y-67794758D01*
X165160828Y-67851698D01*
X165161133Y-67853231D01*
X165205448Y-67919552D01*
X165271769Y-67963867D01*
X165316231Y-67972711D01*
X165330241Y-67975498D01*
X165330246Y-67975498D01*
X165330252Y-67975500D01*
X166726678Y-67975500D01*
X166784869Y-67994407D01*
X166796682Y-68004496D01*
X167021504Y-68229318D01*
X167049281Y-68283835D01*
X167050500Y-68299322D01*
X167050500Y-68927045D01*
X167031593Y-68985236D01*
X167021504Y-68997049D01*
X166682962Y-69335589D01*
X166665925Y-69272007D01*
X166600099Y-69157993D01*
X166507007Y-69064901D01*
X166392993Y-68999075D01*
X166329407Y-68982036D01*
X166745067Y-68566377D01*
X166697369Y-68534505D01*
X166697360Y-68534501D01*
X166506272Y-68455349D01*
X166303418Y-68415000D01*
X166096581Y-68415000D01*
X165893727Y-68455349D01*
X165702638Y-68534501D01*
X165654931Y-68566377D01*
X166070591Y-68982037D01*
X166007007Y-68999075D01*
X165892993Y-69064901D01*
X165799901Y-69157993D01*
X165734075Y-69272007D01*
X165717037Y-69335591D01*
X165301377Y-68919931D01*
X165269501Y-68967638D01*
X165190349Y-69158727D01*
X165150000Y-69361581D01*
X165150000Y-69568418D01*
X165190349Y-69771272D01*
X165269501Y-69962360D01*
X165269505Y-69962369D01*
X165301377Y-70010067D01*
X165717036Y-69594407D01*
X165734075Y-69657993D01*
X165799901Y-69772007D01*
X165892993Y-69865099D01*
X166007007Y-69930925D01*
X166070590Y-69947962D01*
X165654931Y-70363621D01*
X165702639Y-70395498D01*
X165893727Y-70474650D01*
X166096581Y-70514999D01*
X166096586Y-70515000D01*
X166303414Y-70515000D01*
X166303418Y-70514999D01*
X166506272Y-70474650D01*
X166697359Y-70395499D01*
X166745068Y-70363621D01*
X166329409Y-69947962D01*
X166392993Y-69930925D01*
X166507007Y-69865099D01*
X166600099Y-69772007D01*
X166665925Y-69657993D01*
X166682962Y-69594408D01*
X167021504Y-69932950D01*
X167049281Y-69987467D01*
X167050500Y-70002954D01*
X167050500Y-71788178D01*
X167031593Y-71846369D01*
X167021504Y-71858182D01*
X166384182Y-72495504D01*
X166329665Y-72523281D01*
X166314178Y-72524500D01*
X166135751Y-72524500D01*
X166037580Y-72540049D01*
X166037576Y-72540050D01*
X165919250Y-72600341D01*
X165825341Y-72694250D01*
X165765050Y-72812576D01*
X165765049Y-72812580D01*
X165749500Y-72910751D01*
X165749500Y-73489248D01*
X165765049Y-73587419D01*
X165765050Y-73587423D01*
X165770709Y-73598529D01*
X165825342Y-73705751D01*
X165919249Y-73799658D01*
X166037580Y-73859951D01*
X166104130Y-73870491D01*
X166135751Y-73875500D01*
X166135754Y-73875500D01*
X166639249Y-73875500D01*
X166667803Y-73870976D01*
X166737420Y-73859951D01*
X166855751Y-73799658D01*
X166949658Y-73705751D01*
X167009951Y-73587420D01*
X167023749Y-73500304D01*
X167025500Y-73489248D01*
X167025500Y-73310821D01*
X167044407Y-73252630D01*
X167054490Y-73240823D01*
X167951499Y-72343815D01*
X167953540Y-72340281D01*
X168017392Y-72229686D01*
X168051500Y-72102392D01*
X168051500Y-67985108D01*
X168033934Y-67919552D01*
X168017392Y-67857814D01*
X168017390Y-67857811D01*
X168017390Y-67857809D01*
X167951502Y-67743689D01*
X167951501Y-67743688D01*
X167951500Y-67743687D01*
X167951499Y-67743685D01*
X167279496Y-67071682D01*
X167251719Y-67017165D01*
X167250500Y-67001678D01*
X167250500Y-66055253D01*
X167250498Y-66055241D01*
X167239609Y-66000501D01*
X167238867Y-65996769D01*
X167194552Y-65930448D01*
X167194548Y-65930445D01*
X167128233Y-65886134D01*
X167128231Y-65886133D01*
X167128228Y-65886132D01*
X167128227Y-65886132D01*
X167069758Y-65874501D01*
X167069748Y-65874500D01*
X165330252Y-65874500D01*
X165330251Y-65874500D01*
X165330241Y-65874501D01*
X165271772Y-65886132D01*
X165271766Y-65886134D01*
X165205451Y-65930445D01*
X165205445Y-65930451D01*
X165161134Y-65996766D01*
X165161132Y-65996772D01*
X165149501Y-66055241D01*
X165149500Y-66055253D01*
X165149500Y-66225500D01*
X165130593Y-66283691D01*
X165081093Y-66319655D01*
X165050500Y-66324500D01*
X164217256Y-66324500D01*
X164159065Y-66305593D01*
X164147253Y-66295504D01*
X164103221Y-66251473D01*
X164103217Y-66251470D01*
X163983132Y-66190283D01*
X163983127Y-66190281D01*
X163983126Y-66190281D01*
X163949913Y-66185020D01*
X163883490Y-66174500D01*
X163883488Y-66174500D01*
X163316512Y-66174500D01*
X163316510Y-66174500D01*
X163216874Y-66190281D01*
X163216867Y-66190283D01*
X163096782Y-66251470D01*
X163096778Y-66251473D01*
X163052747Y-66295504D01*
X162998230Y-66323281D01*
X162982744Y-66324500D01*
X162765892Y-66324500D01*
X162634108Y-66324500D01*
X162562101Y-66343793D01*
X162506805Y-66358610D01*
X162503958Y-66359790D01*
X162501759Y-66359962D01*
X162500546Y-66360288D01*
X162500485Y-66360063D01*
X162442961Y-66364586D01*
X162396008Y-66335807D01*
X162394998Y-66336818D01*
X162389198Y-66331018D01*
X162389198Y-66331017D01*
X162306483Y-66248302D01*
X162306481Y-66248301D01*
X162201395Y-66196927D01*
X162174139Y-66192956D01*
X162133260Y-66187000D01*
X161766740Y-66187000D01*
X161732673Y-66191963D01*
X161698604Y-66196927D01*
X161593518Y-66248301D01*
X161510801Y-66331018D01*
X161459427Y-66436104D01*
X161459427Y-66436107D01*
X161455250Y-66464774D01*
X161428152Y-66519630D01*
X161373984Y-66548082D01*
X161357285Y-66549500D01*
X160642715Y-66549500D01*
X160584524Y-66530593D01*
X160548560Y-66481093D01*
X160544750Y-66464780D01*
X160540573Y-66436107D01*
X160489198Y-66331017D01*
X160406483Y-66248302D01*
X160406481Y-66248301D01*
X160301395Y-66196927D01*
X160274139Y-66192956D01*
X160233260Y-66187000D01*
X159866740Y-66187000D01*
X159832673Y-66191963D01*
X159798604Y-66196927D01*
X159693518Y-66248301D01*
X159610801Y-66331018D01*
X159559427Y-66436104D01*
X159559427Y-66436107D01*
X159555250Y-66464774D01*
X159551440Y-66472487D01*
X159551440Y-66481093D01*
X159538158Y-66499372D01*
X159528152Y-66519630D01*
X159520533Y-66523631D01*
X159515476Y-66530593D01*
X159493988Y-66537574D01*
X159473984Y-66548082D01*
X159457285Y-66549500D01*
X159448322Y-66549500D01*
X159390131Y-66530593D01*
X159378319Y-66520504D01*
X159057315Y-66199501D01*
X159057310Y-66199497D01*
X158943190Y-66133610D01*
X158943192Y-66133610D01*
X158893800Y-66120376D01*
X158815893Y-66099501D01*
X158815891Y-66099501D01*
X158549500Y-66099501D01*
X158491309Y-66080594D01*
X158455345Y-66031094D01*
X158450500Y-66000501D01*
X158450500Y-65980254D01*
X158450498Y-65980242D01*
X158447711Y-65966232D01*
X158438867Y-65921770D01*
X158394552Y-65855449D01*
X158394548Y-65855446D01*
X158328233Y-65811135D01*
X158328231Y-65811134D01*
X158328228Y-65811133D01*
X158328227Y-65811133D01*
X158269758Y-65799502D01*
X158269748Y-65799501D01*
X154530252Y-65799501D01*
X154530251Y-65799501D01*
X154530241Y-65799502D01*
X154471772Y-65811133D01*
X154471766Y-65811135D01*
X154405451Y-65855446D01*
X154405445Y-65855452D01*
X154361134Y-65921767D01*
X154361132Y-65921773D01*
X154349501Y-65980242D01*
X154349500Y-65980254D01*
X152400000Y-65980254D01*
X152400000Y-65299500D01*
X152418907Y-65241309D01*
X152468407Y-65205345D01*
X152499000Y-65200500D01*
X168200500Y-65200500D01*
X168258691Y-65219407D01*
G37*
%TD.AperFunction*%
%TD*%
M02*
